<?xml version="1.0" encoding="UTF-8"?>
<svg version="1.1" xmlns="http://www.w3.org/2000/svg" width="1080" height="1080">
<path d="M0 0 C1.09054688 -0.04350586 1.09054688 -0.04350586 2.203125 -0.08789062 C16.94245758 -0.2530728 31.60330868 7.86575014 44.9375 13.375 C47.11675566 14.2705578 49.29620252 15.16565045 51.47583008 16.06030273 C57.07176646 18.35907134 62.66473547 20.66495929 68.2565918 22.97363281 C71.34965069 24.25043635 74.44325785 25.52589974 77.53710938 26.80078125 C88.00476886 31.11455415 98.4686731 35.43733815 108.92984009 39.76683044 C115.67322362 42.55748149 122.41817267 45.3443195 129.1640625 48.12890625 C130.12792374 48.52680359 131.09178497 48.92470093 132.08485413 49.33465576 C135.95542406 50.93248321 139.82599905 52.53029839 143.69662476 54.12799072 C153.95224644 58.3616879 164.20504062 62.60195981 174.44921875 66.86328125 C190.66528979 73.60722329 206.88952723 80.3132436 223.21044922 86.80004883 C233.20942044 90.77961519 243.17127944 94.84617064 253.125 98.9375 C253.94243683 99.27345184 254.75987366 99.60940369 255.6020813 99.95553589 C258.9769814 101.34269748 262.35178913 102.73008344 265.72645569 104.11781311 C275.33420127 108.06814027 284.94774633 112.00426572 294.5625 115.9375 C295.45583038 116.30297943 296.34916077 116.66845886 297.26956177 117.04501343 C316.63690164 124.96753436 336.0152746 132.86298103 355.39529419 140.75442505 C357.5197349 141.61960801 359.64406466 142.48506347 361.76828003 143.35079956 C367.44773558 145.66502272 373.12961652 147.97306433 378.81469727 150.2734375 C380.02713608 150.76497818 381.23957489 151.25651886 382.48875427 151.76295471 C384.80679737 152.70264106 387.12556827 153.64053487 389.44520569 154.57627869 C423.98291924 168.59160422 451.83910786 190.43173246 471.5 222.3125 C471.88784668 222.93318359 472.27569336 223.55386719 472.67529297 224.19335938 C488.92697959 250.49587944 494.81177238 279.70112767 494.79052734 310.265625 C494.79652838 312.01375104 494.80333747 313.76187445 494.81088257 315.50999451 C494.82839298 320.21506043 494.83323166 324.9200534 494.83451414 329.62514877 C494.83594523 332.5784453 494.84023282 335.53172385 494.84550858 338.48501587 C494.86396179 348.82742469 494.87218541 359.16978229 494.87060547 369.51220703 C494.86940645 379.08869652 494.89047388 388.66495979 494.9220928 398.24139214 C494.94841887 406.5154569 494.95896593 414.78944854 494.95769465 423.06355476 C494.95718964 427.98202628 494.96261269 432.90029653 494.98405075 437.81872559 C495.13497039 475.06812058 492.96579547 512.29578449 466.5 541.3125 C465.8201001 542.06394287 465.8201001 542.06394287 465.12646484 542.83056641 C449.00187814 560.43495786 429.38011571 571.71801844 405.27734375 573.55859375 C402.32335571 573.62475686 399.44666102 573.52354464 396.5 573.3125 C395.06914063 573.22548828 395.06914063 573.22548828 393.609375 573.13671875 C371.1062775 570.74215837 348.51165748 557.40845561 327.97900391 548.39874268 C325.48730156 547.30693583 322.99391693 546.21906203 320.5 545.13232422 C316.42003735 543.35400899 312.34373001 541.56756135 308.27005005 539.77490234 C306.7398562 539.10254838 305.20869654 538.43238732 303.67648315 537.76464844 C265.0601638 520.91583865 245.97055377 493.61062018 227.25 457.25 C220.93680107 445.01691322 214.21092126 434.20234945 204.5 424.3125 C203.74074219 423.52875 202.98148437 422.745 202.19921875 421.9375 C190.65283914 410.75017311 177.1041634 405.8606722 161.22631836 405.95117188 C149.39053298 406.23300521 140.04880767 411.76369233 131.70703125 420.10546875 C131.18496094 420.66878906 130.66289062 421.23210937 130.125 421.8125 C120.98830695 431.36449728 107.16416383 437.65382515 94.00390625 438.55078125 C80.78808094 438.79964218 70.26977235 435.68329303 58.34765625 430.1875 C51.31986372 426.98644175 44.25499906 423.91520595 37.10546875 420.99609375 C36.24750702 420.64515152 35.38954529 420.29420929 34.50558472 419.93263245 C31.02274775 418.51086942 27.53817264 417.09356056 24.05004883 415.68481445 C-14.88129418 399.93402085 -42.97952582 375.04335685 -60.01171875 335.9453125 C-66.82387091 319.31722456 -71.65951098 301.32005458 -71.64044189 283.27102661 C-71.64341302 282.38274229 -71.64638414 281.49445797 -71.6494453 280.57925594 C-71.65808994 277.6141883 -71.65963697 274.64916125 -71.66113281 271.68408203 C-71.66576414 269.55302342 -71.67078922 267.42196564 -71.67617798 265.29090881 C-71.6892773 259.50730879 -71.69574261 253.72372036 -71.70018864 247.94010782 C-71.70312453 244.32088854 -71.70723041 240.70167238 -71.71169281 237.08245468 C-71.72536386 225.74217752 -71.73503133 214.40190757 -71.7388947 203.06162274 C-71.74336872 190.00282027 -71.7608878 176.94412281 -71.7898953 163.88535225 C-71.8115741 153.77207577 -71.82160235 143.6588287 -71.82293582 133.54552925 C-71.8239798 127.51493211 -71.82980005 121.48443375 -71.84775543 115.45386124 C-71.86434258 109.77225312 -71.86634036 104.09081687 -71.85761642 98.40919304 C-71.8568516 96.33612416 -71.86111451 94.26304563 -71.87107468 92.19000053 C-71.99493371 64.77925053 -67.01817828 39.71166983 -47.48046875 19.19140625 C-37.85690449 10.03205845 -26.32132298 4.43406007 -13.5 1.3125 C-12.72785156 1.12171875 -11.95570312 0.9309375 -11.16015625 0.734375 C-7.44305327 0.14487849 -3.75431215 0.04788663 0 0 Z " fill="#F6B012" transform="translate(71.5,333.6875)"/>
<path d="M0 0 C0.68786591 0.20078659 1.37573181 0.40157318 2.08444214 0.60844421 C2.79923737 0.82507217 3.51403259 1.04170013 4.25048828 1.26489258 C5.01450958 1.49340408 5.77853088 1.72191559 6.56570435 1.95735168 C8.17180296 2.44059525 9.776847 2.9273566 11.38085938 3.41748047 C13.80331645 4.15410715 16.23149036 4.8690698 18.66064453 5.58325195 C35.93733446 10.7669575 48.32844805 19.10059864 58.94580078 33.97192383 C57.61286022 36.85361438 56.08167795 39.14844644 54.07080078 41.59692383 C47.24439001 50.65986038 44.97336513 60.82393665 46.31689453 72.08129883 C48.26202416 81.40825581 53.01174147 90.65452056 60.69580078 96.55004883 C66.50276817 100.21972961 72.74287477 103.04782102 78.94580078 105.97192383 C80.15995591 106.54766904 81.37397666 107.12369767 82.58789062 107.69995117 C86.74565749 109.67242136 90.907398 111.63638093 95.07080078 113.59692383 C95.74867645 113.91644012 96.42655212 114.23595642 97.12496948 114.56515503 C123.71901025 128.02589607 123.71901025 128.02589607 152.47265625 126.23364258 C157.90460204 124.26033344 162.85529337 121.61329782 167.88330078 118.78442383 C168.92164063 118.20708496 169.95998047 117.62974609 171.02978516 117.03491211 C174.01167116 115.36399564 176.98001512 113.67120782 179.94580078 111.97192383 C181.09653076 111.32634521 181.09653076 111.32634521 182.27050781 110.66772461 C194.44040961 103.79159992 201.5493345 95.30594327 205.94580078 81.97192383 C210.85302575 82.6075673 215.26185412 84.04339209 219.86767578 85.78051758 C221.44827037 86.36419191 223.02909092 86.94725464 224.61010742 87.52978516 C225.43801788 87.83639069 226.26592834 88.14299622 227.118927 88.45889282 C289.1979362 111.3579667 353.64572834 123.13063484 419.14501953 131.24145508 C457.89629694 136.06260054 497.40551335 142.61757789 527.94580078 168.97192383 C529.31285156 170.14948242 529.31285156 170.14948242 530.70751953 171.35083008 C533.16095622 173.51821586 535.56217486 175.72826171 537.94580078 177.97192383 C538.84685547 178.79370117 538.84685547 178.79370117 539.76611328 179.63208008 C551.70724965 190.9345045 561.21943097 206.05692991 567.94580078 220.97192383 C567.94580078 221.63192383 567.94580078 222.29192383 567.94580078 222.97192383 C550.91018926 230.72955928 533.52386195 237.52567105 516.07421875 244.28588867 C506.35891379 248.05221114 496.66289285 251.85889144 487.01220703 255.78833008 C486.11855942 256.15056168 485.2249118 256.51279327 484.30418396 256.88600159 C454.27672256 269.18372573 430.6544101 290.83317603 417.94580078 320.97192383 C407.41215806 347.30896808 404.6348434 376.69849203 415.32080078 403.53442383 C416.16699221 405.36055124 417.04149813 407.17386433 417.94580078 408.97192383 C418.39826172 409.91293945 418.85072266 410.85395508 419.31689453 411.82348633 C422.31659308 417.72533225 425.80856288 422.43279919 430.40673828 427.19458008 C431.94580078 428.97192383 431.94580078 428.97192383 431.94580078 430.97192383 C432.83525391 431.37024414 432.83525391 431.37024414 433.74267578 431.77661133 C436.00302125 433.00296898 437.39000368 434.28268842 439.19580078 436.09692383 C451.50274036 446.99345628 469.6628023 452.931803 486.01220703 452.22192383 C486.98029297 452.13942383 487.94837891 452.05692383 488.94580078 451.97192383 C490.00669922 451.88942383 491.06759766 451.80692383 492.16064453 451.72192383 C507.50103544 450.03500799 521.73197235 443.8726311 535.77392578 437.78027344 C536.66466797 437.40136963 537.55541016 437.02246582 538.47314453 436.63208008 C539.26454834 436.28798096 540.05595215 435.94388184 540.87133789 435.58935547 C542.94580078 434.97192383 542.94580078 434.97192383 545.94580078 435.97192383 C540.32434606 443.70640763 534.52770168 451.01951857 527.94580078 457.97192383 C526.71603516 459.29836914 526.71603516 459.29836914 525.46142578 460.65161133 C497.29301956 490.07009474 456.82860069 504.86312156 418.81689453 516.55786133 C408.13404527 519.88549186 398.63259426 524.38426453 388.94580078 529.97192383 C388.28322266 530.3533252 387.62064453 530.73472656 386.93798828 531.12768555 C383.48881648 533.12364011 380.0569615 535.14740289 376.63330078 537.18676758 C371.23738586 540.40078512 365.81040394 543.56094462 360.38330078 546.72192383 C358.31686283 547.92629653 356.25045689 549.13072413 354.18408203 550.33520508 C353.14977051 550.93800293 352.11545898 551.54080078 351.04980469 552.16186523 C348.0284833 553.92370862 345.00840329 555.68765861 341.98876953 557.45239258 C337.03805297 560.34544589 332.0840927 563.23288056 327.12841797 566.11743164 C324.89360428 567.41964434 322.65981159 568.72348791 320.42724609 570.02954102 C317.43335868 571.78078221 314.43658032 573.52698273 311.43792725 575.27005005 C309.73043244 576.26425913 308.02582826 577.2634274 306.32128906 578.26269531 C305.28472168 578.86412354 304.2481543 579.46555176 303.18017578 580.08520508 C302.26461914 580.61927979 301.3490625 581.15335449 300.40576172 581.70361328 C298.21251321 582.83441181 296.35625722 583.51143237 293.94580078 583.97192383 C294.39310547 582.7834082 294.84041016 581.59489258 295.30126953 580.37036133 C307.15414613 548.19169192 308.26716367 516.55003956 308.21445179 482.65098596 C308.20929029 478.27449843 308.21411051 473.89801812 308.21722412 469.52153015 C308.2208337 462.18360865 308.2161435 454.84572779 308.20654297 447.5078125 C308.19565205 439.08767964 308.19920091 430.66764365 308.21019578 422.24751312 C308.21934076 414.9448065 308.22051943 407.64212862 308.21531844 400.33941811 C308.21223953 396.00972835 308.21167457 391.68008376 308.21839142 387.35039711 C308.28294522 354.16798555 308.28294522 354.16798555 303.75830078 321.34692383 C303.54471924 320.31116211 303.3311377 319.27540039 303.11108398 318.20825195 C295.9803926 285.26703603 278.83970602 254.22842643 255.59033203 229.88989258 C253.94580078 227.97192383 253.94580078 227.97192383 252.94580078 224.97192383 C251.62164448 224.28721053 250.28676253 223.62311029 248.94580078 222.97192383 C247.65531052 221.72070936 246.40973655 220.42254169 245.19580078 219.09692383 C222.39646806 195.84907964 191.14685129 184.06058838 161.49465942 172.35964966 C148.89287657 167.38010586 136.32805432 162.30773034 123.76080322 157.24182129 C122.38270552 156.68631346 121.0045723 156.13089371 119.62640381 155.57556152 C102.06118902 148.49762258 84.52630962 141.3622866 67.08642578 133.97973633 C58.50348925 130.3503664 49.88147972 126.81689237 41.25830078 123.28442383 C40.44339172 122.95051636 39.62848267 122.61660889 38.78887939 122.27258301 C30.1899584 118.74992957 21.58821155 115.23419194 12.9861908 111.71911621 C8.45177201 109.86618412 3.91747706 108.01294926 -0.61669922 106.15942383 C-1.52932526 105.78636108 -2.44195129 105.41329834 -3.38223267 105.02893066 C-17.57616838 99.22545966 -31.75716804 93.39117283 -45.92919922 87.53442383 C-46.88119202 87.14104828 -47.83318481 86.74767273 -48.81402588 86.34237671 C-58.43182552 82.36775777 -68.04807909 78.38942539 -77.66189575 74.40518188 C-105.73133017 62.77394307 -133.86752719 51.31608982 -162.05419922 39.97192383 C-161.05419922 37.97192383 -161.05419922 37.97192383 -158.37191772 37.02130127 C-156.56021591 36.52554596 -156.56021591 36.52554596 -154.71191406 36.01977539 C-154.04146183 35.83421837 -153.3710096 35.64866135 -152.68024063 35.45748138 C-150.41902857 34.83432989 -148.15472696 34.22330079 -145.89013672 33.61254883 C-144.27464888 33.17095512 -142.65928505 32.72890751 -141.04403687 32.28643799 C-121.29222439 26.89381757 -101.48470498 21.70550498 -81.68048096 16.50952148 C-73.68231608 14.41063959 -65.68521085 12.3077268 -57.68827438 10.20417023 C-54.95835349 9.48655312 -52.22806497 8.77035032 -49.49771118 8.05438232 C-48.21083184 7.71609594 -48.21083184 7.71609594 -46.89795494 7.37097549 C-45.20169681 6.92542759 -43.50501731 6.48148053 -41.80790138 6.03921127 C-37.23589344 4.84063141 -32.68705614 3.58488798 -28.14959717 2.2611084 C-27.16527899 1.97867405 -26.18096081 1.6962397 -25.1668148 1.40524673 C-23.2813469 0.86225792 -21.399255 0.30734629 -19.52149391 -0.26172256 C-12.48906609 -2.27153505 -7.06535443 -2.09110196 0 0 Z " fill="#F6B012" transform="translate(290.05419921875,278.028076171875)"/>
<path d="M0 0 C87.36667475 -1.33493719 176.93103743 6.48652141 351.65576172 91.35888672 C370.05115945 109.51810958 382.89808025 131.14261693 384.39013672 157.49169922 C384.4224745 187.04842969 371.22486935 214.92981926 350.62060547 235.88232422 C349.51845703 236.96126953 349.51845703 236.96126953 348.39404297 238.06201172 C347.76498047 237.02302734 347.13591797 235.98404297 346.48779297 234.91357422 C329.76334166 207.53522299 308.0537265 189.71104052 280.39404297 174.06201172 C279.50716797 173.56024414 278.62029297 173.05847656 277.70654297 172.54150391 C214.16167794 137.04859258 139.13174676 125.00720841 67.39404297 120.06201172 C66.3948584 119.98998535 65.39567383 119.91795898 64.36621094 119.84375 C-15.04513674 114.29040589 -96.08170652 125.4212788 -185.25195312 147.63525391 C-190.67920164 148.61916081 -194.822052 146.08298717 -199.49267578 143.60888672 C-208.92803544 138.7578284 -218.65186108 134.65296283 -228.43481445 130.56054688 C-231.43396476 129.30552235 -234.42934923 128.04182571 -237.42431641 126.77685547 C-239.36616059 125.95994247 -241.30821076 125.14351888 -243.25048828 124.32763672 C-244.56651787 123.77284637 -244.56651787 123.77284637 -245.90913391 123.20684814 C-259.74800216 117.42849092 -270.60943092 113.21316925 -285.60595703 117.06201172 C-288.04465807 118.08176617 -290.35610535 119.17383617 -292.66845703 120.45263672 C-294.60595703 121.06201172 -294.60595703 121.06201172 -296.61767578 120.49560547 C-299.20675197 118.62882558 -300.63008477 116.51518359 -302.41845703 113.87451172 C-313.13005948 98.75224944 -328.490117 89.60435984 -345.60595703 83.06201172 C-343.15465813 80.251936 -340.61334354 78.94917416 -337.23486328 77.41748047 C-336.12296631 76.91297363 -335.01106934 76.4084668 -333.86547852 75.88867188 C-332.63364286 75.34114794 -331.4012839 74.79480014 -330.16845703 74.24951172 C-329.53271759 73.96678406 -328.89697815 73.6840564 -328.24197388 73.39276123 C-288.70690351 55.85948242 -247.45223546 40.99663567 -205.60595703 30.06201172 C-204.13457816 29.67359619 -202.66322537 29.28508183 -201.19189453 28.89648438 C-135.41896453 11.59466621 -68.07610997 1.17070629 0 0 Z " fill="#F6B012" transform="translate(671.60595703125,172.93798828125)"/>
<path d="M0 0 C0.33 0 0.66 0 1 0 C1.78923416 8.11997463 2.15263181 16.15147692 2.16113281 24.30761719 C2.16609772 25.47360443 2.17106262 26.63959167 2.17617798 27.84091187 C2.19066224 31.65957246 2.19757775 35.47819156 2.203125 39.296875 C2.2074277 41.29803575 2.21173097 43.2991965 2.2160995 45.3003571 C2.22785944 50.87024749 2.23542999 56.44012803 2.2388947 62.01002955 C2.24337025 69.16049646 2.26091461 76.31077173 2.2898953 83.46118045 C2.31165608 89.02765995 2.32160651 94.59408608 2.32293582 100.16060758 C2.32397321 103.46755701 2.33114997 106.77428651 2.34775543 110.08119965 C2.49431046 141.50351523 -3.93083472 167.21493546 -24 192 C-24.62648438 192.82886719 -25.25296875 193.65773438 -25.8984375 194.51171875 C-36.76989525 208.54148537 -50.00030765 221.32020301 -64.33154297 231.77587891 C-66.01182195 233.00867358 -67.66508523 234.27171752 -69.31640625 235.54296875 C-89.21580863 250.70495659 -110.94922316 263.27254975 -133 275 C-133.63013 275.33515625 -134.26026001 275.6703125 -134.90948486 276.015625 C-279.13814546 352.56446192 -279.13814546 352.56446192 -315.24609375 345.3515625 C-327.53021942 341.27427824 -335.98862452 332.4034734 -341.75 321.125 C-350.08550484 303.99932642 -349.36864228 284.35284985 -343.8125 266.4375 C-339.91748742 255.43780172 -334.4985217 245.91000813 -327 237 C-326.34837891 236.13181641 -326.34837891 236.13181641 -325.68359375 235.24609375 C-319.28826098 227.0180686 -310.16634122 220.7876607 -300.90234375 216.21484375 C-300.22083755 215.87694824 -299.53933136 215.53905273 -298.83717346 215.19091797 C-290.54780307 211.17524763 -281.96467457 207.90517562 -273.36630249 204.62011719 C-268.27319917 202.6722656 -263.19191273 200.69397006 -258.109375 198.71875 C-256.56947151 198.12114868 -256.56947151 198.12114868 -254.99845886 197.51147461 C-231.48409937 188.37175364 -208.22645152 178.63523255 -185.125 168.5 C-184.28190277 168.13036133 -183.43880554 167.76072266 -182.57015991 167.37988281 C-168.15417928 161.04796903 -153.69822244 154.69131038 -139.8125 147.25 C-139.03753174 146.83717773 -138.26256348 146.42435547 -137.46411133 145.99902344 C-135.82028853 145.12131585 -134.17763505 144.24141492 -132.53613281 143.359375 C-129.92263465 141.95853193 -127.30133424 140.57302365 -124.6796875 139.1875 C-105.69648761 129.081568 -87.73295364 117.8473381 -70.87695312 104.47558594 C-69.0967384 103.07605188 -67.29762606 101.70790715 -65.484375 100.3515625 C-57.88204531 94.65564099 -50.86646444 88.54686877 -44 82 C-43.22011719 81.27296875 -42.44023438 80.5459375 -41.63671875 79.796875 C-20.44144243 59.46748031 -6.35072911 32.9599921 -1.578125 4.0703125 C-1 1 -1 1 0 0 Z " fill="#F6B012" transform="translate(1078,352)"/>
<path d="M0 0 C3.02397472 1.19976019 5.99614525 2.48625169 8.96931458 3.80690002 C10.61687996 4.52158195 10.61687996 4.52158195 12.29772949 5.2507019 C15.8016385 6.77451033 19.29740112 8.31612708 22.79353333 9.85768127 C25.13354641 10.87636665 27.47403675 11.89395645 29.8150177 12.91041565 C57.99366203 25.19543868 57.99366203 25.19543868 59.48103333 28.17018127 C59.85603333 30.98268127 59.85603333 30.98268127 59.48103333 34.17018127 C55.61637092 38.83679931 50.98804752 41.37575512 45.73103333 44.17018127 C44.59021301 44.78893127 44.59021301 44.78893127 43.42634583 45.42018127 C41.88907887 46.25395318 40.34802786 47.08078548 38.80329895 47.90065002 C37.22873412 48.76142979 35.67520245 49.66162366 34.1431427 50.59596252 C33.00328918 51.28238831 33.00328918 51.28238831 31.84040833 51.98268127 C31.16977356 52.40162659 30.49913879 52.8205719 29.80818176 53.25221252 C25.28759559 55.0354064 21.5197652 54.53435412 17.00617981 52.95191956 C15.78193857 52.39492564 14.56410714 51.82368599 13.35212708 51.24049377 C12.68831024 50.9343515 12.02449341 50.62820923 11.34056091 50.31278992 C9.19383154 49.31937776 7.05628257 48.30775374 4.91853333 47.29518127 C3.4411563 46.60613457 1.96320586 45.91831607 0.48469543 45.23170471 C-1.73825362 44.19862081 -3.9604752 43.16415128 -6.18014526 42.1240387 C-10.60352213 40.05152817 -15.04348944 38.02829588 -19.51115417 36.05299377 C-21.03760559 35.37599426 -21.03760559 35.37599426 -22.59489441 34.68531799 C-24.45915873 33.86110353 -26.32575936 33.04214707 -28.19499207 32.22926331 C-29.01217712 31.86429749 -29.82936218 31.49933167 -30.67131042 31.12330627 C-31.37247986 30.8155426 -32.07364929 30.50777893 -32.79606628 30.19068909 C-34.51896667 29.17018127 -34.51896667 29.17018127 -36.51896667 26.17018127 C-37.14396667 22.92018127 -37.14396667 22.92018127 -36.51896667 19.17018127 C-31.60354041 13.65914302 -24.98896976 9.4260653 -18.95646667 5.23268127 C-18.14500183 4.64422424 -17.33353699 4.05576721 -16.4974823 3.44947815 C-15.69890808 2.89453674 -14.90033386 2.33959534 -14.07756042 1.76783752 C-13.01492981 1.017724 -13.01492981 1.017724 -11.93083191 0.25245667 C-7.75268608 -1.62240116 -4.33750794 -1.42889755 0 0 Z " fill="#F6B012" transform="translate(404.5189666748047,320.82981872558594)"/>
</svg>
